<svg width="27" height="27" viewBox="0 0 27 27" fill="none" xmlns="http://www.w3.org/2000/svg">
<rect width="27" height="27" rx="4" fill="url(#paint0_radial_857:170)" fill-opacity="0.5"/>
<path d="M22.5 7.16667C22.6326 7.16667 22.7598 7.22227 22.8536 7.32125C22.9473 7.42023 23 7.55447 23 7.69444V8.75C23 8.88998 22.9473 9.02422 22.8536 9.1232C22.7598 9.22217 22.6326 9.27778 22.5 9.27778H20.5V20.8889C20.5 22.0648 19.54 22.9451 18.4065 22.9974L18.3 23H8.7C7.557 23 6.562 22.1556 6.503 20.9981L6.5 20.8889V9.27778H4.5C4.36739 9.27778 4.24021 9.22217 4.14645 9.1232C4.05268 9.02422 4 8.88998 4 8.75V7.69444C4 7.55447 4.05268 7.42023 4.14645 7.32125C4.24021 7.22227 4.36739 7.16667 4.5 7.16667H22.5V7.16667ZM18.5 9.27778H8.5V20.8303L8.52 20.8451C8.55941 20.8673 8.60256 20.8811 8.647 20.8857L8.7 20.8889H18.3C18.3625 20.8905 18.4244 20.8754 18.48 20.8451L18.5 20.8298V9.27778V9.27778ZM12 11.9167C12.1326 11.9167 12.2598 11.9723 12.3536 12.0712C12.4473 12.1702 12.5 12.3045 12.5 12.4444V17.7222C12.5 17.8622 12.4473 17.9964 12.3536 18.0954C12.2598 18.1944 12.1326 18.25 12 18.25H11C10.8674 18.25 10.7402 18.1944 10.6464 18.0954C10.5527 17.9964 10.5 17.8622 10.5 17.7222V12.4444C10.5 12.3045 10.5527 12.1702 10.6464 12.0712C10.7402 11.9723 10.8674 11.9167 11 11.9167H12ZM16 11.9167C16.1326 11.9167 16.2598 11.9723 16.3536 12.0712C16.4473 12.1702 16.5 12.3045 16.5 12.4444V17.7222C16.5 17.8622 16.4473 17.9964 16.3536 18.0954C16.2598 18.1944 16.1326 18.25 16 18.25H15C14.8674 18.25 14.7402 18.1944 14.6464 18.0954C14.5527 17.9964 14.5 17.8622 14.5 17.7222V12.4444C14.5 12.3045 14.5527 12.1702 14.6464 12.0712C14.7402 11.9723 14.8674 11.9167 15 11.9167H16ZM16 4C16.0657 4 16.1307 4.01365 16.1913 4.04017C16.252 4.0667 16.3071 4.10557 16.3536 4.15458C16.4 4.20359 16.4368 4.26177 16.4619 4.32581C16.4871 4.38984 16.5 4.45847 16.5 4.52778V5.58333C16.5 5.72331 16.4473 5.85755 16.3536 5.95653C16.2598 6.05551 16.1326 6.11111 16 6.11111H11C10.8674 6.11111 10.7402 6.05551 10.6464 5.95653C10.5527 5.85755 10.5 5.72331 10.5 5.58333V4.52778C10.5 4.45847 10.5129 4.38984 10.5381 4.32581C10.5632 4.26177 10.6 4.20359 10.6464 4.15458C10.6929 4.10557 10.748 4.0667 10.8087 4.04017C10.8693 4.01365 10.9343 4 11 4H16V4Z" fill="white" fill-opacity="0.6"/>
<defs>
<radialGradient id="paint0_radial_857:170" cx="0" cy="0" r="1" gradientUnits="userSpaceOnUse" gradientTransform="translate(13.5 13.5) rotate(90) scale(37.5)">
<stop stop-color="#311B89" stop-opacity="0"/>
<stop offset="1" stop-color="#2A157D"/>
</radialGradient>
</defs>
</svg>
