<svg width="19" height="19" viewBox="0 0 19 19" fill="none" xmlns="http://www.w3.org/2000/svg">
<g clip-path="url(#clip0_857:75)">
<path d="M18.7223 17.3566L15.5215 14.1409C18.5907 10.2499 17.8161 4.55284 13.7676 1.61621C10.1284 -0.982704 5.05688 -0.380695 2.1338 2.99643C-1.14005 6.78468 -0.570045 12.5111 3.31765 15.5946C6.51842 18.1348 11.0346 18.0907 14.1915 15.5212L17.3776 18.7221C17.7576 19.1039 18.3569 19.1039 18.7369 18.7221C19.1023 18.3403 19.1023 17.7236 18.7223 17.3566ZM2.00226 8.72286C2.00226 4.87587 5.1738 1.77773 9.03226 1.92456C12.54 2.05671 15.39 4.93461 15.5361 8.45856C15.6823 12.3349 12.5984 15.5212 8.76919 15.5212C5.02765 15.5212 2.00226 12.4671 2.00226 8.72286Z" fill="white"/>
</g>
<defs>
<clipPath id="clip0_857:75">
<rect width="19" height="19" fill="white"/>
</clipPath>
</defs>
</svg>
