<svg width="19" height="19" viewBox="0 0 19 19" fill="none" xmlns="http://www.w3.org/2000/svg">
<path d="M18.5 3.16667C18.6326 3.16667 18.7598 3.22227 18.8536 3.32125C18.9473 3.42023 19 3.55447 19 3.69444V4.75C19 4.88998 18.9473 5.02422 18.8536 5.1232C18.7598 5.22217 18.6326 5.27778 18.5 5.27778H16.5V16.8889C16.5 18.0648 15.54 18.9451 14.4065 18.9974L14.3 19H4.7C3.557 19 2.562 18.1556 2.503 16.9981L2.5 16.8889V5.27778H0.5C0.367392 5.27778 0.240215 5.22217 0.146447 5.1232C0.0526785 5.02422 0 4.88998 0 4.75V3.69444C0 3.55447 0.0526785 3.42023 0.146447 3.32125C0.240215 3.22227 0.367392 3.16667 0.5 3.16667H18.5V3.16667ZM14.5 5.27778H4.5V16.8303L4.52 16.8451C4.55941 16.8673 4.60256 16.8811 4.647 16.8857L4.7 16.8889H14.3C14.3625 16.8905 14.4244 16.8754 14.48 16.8451L14.5 16.8298V5.27778V5.27778ZM8 7.91667C8.13261 7.91667 8.25979 7.97227 8.35355 8.07125C8.44732 8.17023 8.5 8.30447 8.5 8.44444V13.7222C8.5 13.8622 8.44732 13.9964 8.35355 14.0954C8.25979 14.1944 8.13261 14.25 8 14.25H7C6.86739 14.25 6.74022 14.1944 6.64645 14.0954C6.55268 13.9964 6.5 13.8622 6.5 13.7222V8.44444C6.5 8.30447 6.55268 8.17023 6.64645 8.07125C6.74022 7.97227 6.86739 7.91667 7 7.91667H8ZM12 7.91667C12.1326 7.91667 12.2598 7.97227 12.3536 8.07125C12.4473 8.17023 12.5 8.30447 12.5 8.44444V13.7222C12.5 13.8622 12.4473 13.9964 12.3536 14.0954C12.2598 14.1944 12.1326 14.25 12 14.25H11C10.8674 14.25 10.7402 14.1944 10.6464 14.0954C10.5527 13.9964 10.5 13.8622 10.5 13.7222V8.44444C10.5 8.30447 10.5527 8.17023 10.6464 8.07125C10.7402 7.97227 10.8674 7.91667 11 7.91667H12ZM12 0C12.0657 0 12.1307 0.0136513 12.1913 0.0401746C12.252 0.066698 12.3071 0.105574 12.3536 0.154582C12.4 0.203591 12.4368 0.261773 12.4619 0.325806C12.4871 0.389839 12.5 0.458469 12.5 0.527778V1.58333C12.5 1.72331 12.4473 1.85755 12.3536 1.95653C12.2598 2.05551 12.1326 2.11111 12 2.11111H7C6.86739 2.11111 6.74022 2.05551 6.64645 1.95653C6.55268 1.85755 6.5 1.72331 6.5 1.58333V0.527778C6.5 0.458469 6.51293 0.389839 6.53806 0.325806C6.56319 0.261773 6.60002 0.203591 6.64645 0.154582C6.69288 0.105574 6.748 0.066698 6.80866 0.0401746C6.86932 0.0136513 6.93434 0 7 0H12V0Z" fill="white"/>
</svg>
