<svg width="33" height="33" viewBox="0 0 33 33" fill="none" xmlns="http://www.w3.org/2000/svg">
<path d="M16.4987 2.86834C18.3517 2.86834 20.1164 3.22128 21.7929 3.92716C23.4252 4.63304 24.8811 5.60363 26.1164 6.83892C27.3517 8.07422 28.3664 9.5301 29.0281 11.1625C29.734 12.8389 30.087 14.6477 30.087 16.4566C30.087 18.2654 29.734 20.0742 29.0281 21.7507C28.3223 23.383 27.3517 24.8389 26.1164 26.0742C24.8811 27.3095 23.4252 28.3242 21.7929 28.986C20.1164 29.6919 18.3076 30.0448 16.4987 30.0448C14.6899 30.0448 12.8811 29.6919 11.2046 28.986C9.57226 28.2801 8.11638 27.3095 6.88109 26.0742C5.64579 24.8389 4.63109 23.383 3.96932 21.7507C3.26344 20.0742 2.9105 18.2654 2.9105 16.4566C2.9105 14.6477 3.26344 12.8389 3.96932 11.1625C4.67521 9.5301 5.64579 8.07422 6.88109 6.83892C8.11638 5.60363 9.57226 4.58892 11.2046 3.92716C12.8811 3.22128 14.6458 2.86834 16.4987 2.86834ZM16.4987 0.574219C7.71932 0.574219 0.572266 7.72128 0.572266 16.5007C0.572266 25.2801 7.67521 32.4272 16.4987 32.4272C25.3223 32.4272 32.4252 25.3242 32.4252 16.5007C32.4252 7.67716 25.2781 0.574219 16.4987 0.574219Z" fill="white"/>
<path d="M16.5 33C7.41176 33 0 25.5882 0 16.5C0 7.41176 7.41176 0 16.5 0C25.5882 0 33 7.41176 33 16.5C33 25.5882 25.5882 33 16.5 33ZM16.5 1.19118C8.07353 1.19118 1.19118 8.07353 1.19118 16.5C1.19118 24.9265 8.07353 31.8088 16.5 31.8088C24.9265 31.8088 31.8088 24.9265 31.8088 16.5C31.8088 8.07353 24.9265 1.19118 16.5 1.19118ZM16.5 30.75C14.6029 30.75 12.7059 30.3529 10.9412 29.6471C9.26471 28.9412 7.72059 27.9265 6.39706 26.6029C5.07353 25.2794 4.05882 23.7794 3.35294 22.0588C2.64706 20.2941 2.25 18.4412 2.25 16.5C2.25 14.5588 2.64706 12.7059 3.35294 10.9412C4.05882 9.26471 5.07353 7.72059 6.39706 6.39706C7.72059 5.07353 9.22059 4.05882 10.9412 3.35294C12.7059 2.60294 14.5588 2.25 16.5 2.25C18.4412 2.29412 20.2941 2.64706 22.0588 3.39706C23.7353 4.10294 25.2794 5.11765 26.6029 6.44118C27.9265 7.76471 28.9412 9.26471 29.6471 10.9853C30.3971 12.75 30.75 14.6029 30.75 16.5441C30.75 18.4853 30.3529 20.3382 29.6471 22.1029C28.9412 23.7794 27.9265 25.3235 26.6029 26.6471C25.2794 27.9706 23.7794 28.9853 22.0588 29.6912C20.2941 30.3529 18.4412 30.75 16.5 30.75ZM16.5 3.48529C14.7353 3.48529 13.0147 3.83823 11.4265 4.5C9.88235 5.16176 8.47059 6.08823 7.27941 7.27941C6.08823 8.47059 5.16176 9.88235 4.5 11.4265C3.83823 13.0147 3.48529 14.7353 3.48529 16.5C3.48529 18.2647 3.83823 19.9853 4.5 21.5735C5.16176 23.1176 6.08823 24.5294 7.27941 25.7206C8.47059 26.9118 9.88235 27.8382 11.4265 28.5C13.0588 29.1618 14.7353 29.5147 16.5 29.5147C18.2647 29.5147 19.9853 29.1618 21.5735 28.5C23.1176 27.8382 24.5294 26.9118 25.7206 25.7206C26.9118 24.5294 27.8382 23.1176 28.5 21.5735C29.1618 19.9853 29.5147 18.2647 29.5147 16.5C29.5147 14.7353 29.1618 13.0147 28.5 11.4265C27.8382 9.88235 26.9118 8.47059 25.7206 7.27941C24.5294 6.08823 23.1176 5.16176 21.5735 4.5C19.9853 3.79412 18.2647 3.48529 16.5 3.48529Z" fill="white"/>
<path d="M15.0869 24.0877C14.4251 24.7494 13.3221 24.7494 12.6163 24.0877L6.66039 18.1759C5.99862 17.5141 5.99862 16.4112 6.66039 15.7053C7.32215 15.0435 8.42509 15.0435 9.13097 15.7053L15.0869 21.6612C15.7486 22.323 15.7486 23.4259 15.0869 24.0877Z" fill="white"/>
<path d="M12.6174 24.088C11.9557 23.4262 11.9557 22.3233 12.6174 21.6174L23.8674 10.3674C24.5292 9.70565 25.6321 9.70565 26.338 10.3674C26.9998 11.0292 26.9998 12.1321 26.338 12.838L15.088 24.088C14.3821 24.7939 13.2792 24.7939 12.6174 24.088Z" fill="white"/>
</svg>
